<svg id="visual" viewBox="0 0 1920 400" width="100%" height="" xmlns="http://www.w3.org/2000/svg" xmlns:xlink="http://www.w3.org/1999/xlink" version="1.1"><rect x="0" y="0" width="1920" height="400" fill="#404040"></rect><path d="M0 197L45.7 207.5C91.3 218 182.7 239 274.2 248.3C365.7 257.7 457.3 255.3 548.8 244C640.3 232.7 731.7 212.3 823 201.8C914.3 191.3 1005.7 190.7 1097 201.2C1188.3 211.7 1279.7 233.3 1371.2 256.8C1462.7 280.3 1554.3 305.7 1645.8 316.8C1737.3 328 1828.7 325 1874.3 323.5L1920 322L1920 401L1874.3 401C1828.7 401 1737.3 401 1645.8 401C1554.3 401 1462.7 401 1371.2 401C1279.7 401 1188.3 401 1097 401C1005.7 401 914.3 401 823 401C731.7 401 640.3 401 548.8 401C457.3 401 365.7 401 274.2 401C182.7 401 91.3 401 45.7 401L0 401Z" fill="#ffffff" stroke-linecap="round" stroke-linejoin="miter"></path></svg>